<svg xmlns="http://www.w3.org/2000/svg" xmlns:xlink="http://www.w3.org/1999/xlink" width="200" zoomAndPan="magnify" viewBox="0 0 150 30.000001" height="40" preserveAspectRatio="xMidYMid meet" version="1.0"><defs><g/></defs><g fill="#000000" fill-opacity="1"><g transform="translate(5.095764, 18.87097)"><g><path d="M 3.316406 -0.296875 L 3.535156 -0.0546875 L 3.832031 0.121094 L 4.347656 0.109375 L 4.644531 0 L 4.863281 -0.285156 L 4.984375 -0.515625 L 5.066406 -0.8125 L 5.199219 -1.054688 L 5.269531 -1.285156 L 5.390625 -1.570312 L 5.457031 -1.789062 L 5.878906 -2.789062 L 5.960938 -3.074219 L 6.203125 -3.589844 L 6.378906 -4.117188 L 6.515625 -4.078125 L 6.648438 -3.847656 L 6.730469 -3.5625 L 6.960938 -3.101562 L 7.734375 -1.015625 L 7.9375 -0.570312 L 8.019531 -0.3125 L 8.273438 -0.0273438 L 8.585938 0.136719 L 8.84375 0.121094 L 9.074219 0.0820312 L 9.398438 -0.0273438 L 9.601562 -0.269531 L 9.683594 -0.527344 L 9.804688 -0.773438 L 10.617188 -3.128906 L 10.738281 -3.359375 L 11.1875 -4.511719 L 11.296875 -4.890625 L 11.417969 -5.132812 L 11.472656 -5.363281 L 12.339844 -7.664062 L 12.40625 -7.964844 L 12.542969 -8.207031 L 12.796875 -9.035156 L 12.71875 -9.359375 L 12.445312 -9.425781 L 12.175781 -9.46875 L 11.703125 -9.441406 L 11.160156 -9.46875 L 10.875 -9.441406 L 10.617188 -9.480469 L 10.332031 -9.34375 L 10.101562 -9.0625 L 10.035156 -8.804688 L 9.914062 -8.574219 L 9.167969 -6.1875 L 9.113281 -5.917969 L 8.9375 -5.351562 L 8.84375 -4.78125 L 8.761719 -4.523438 L 8.628906 -4.535156 L 8.355469 -5.308594 L 8.289062 -5.578125 L 7.707031 -7.109375 L 7.570312 -7.625 L 7.460938 -7.882812 L 7.300781 -8.425781 L 7.191406 -8.65625 L 7.082031 -8.898438 L 6.894531 -9.167969 L 6.609375 -9.332031 L 6.3125 -9.332031 L 6.039062 -9.195312 L 5.808594 -8.925781 L 5.363281 -7.585938 L 5.160156 -7.097656 L 4.671875 -5.527344 L 4.535156 -5.324219 L 4.484375 -5.039062 L 4.28125 -4.523438 L 4.171875 -4.511719 L 4.117188 -4.835938 L 3.25 -7.789062 L 3.140625 -8.019531 L 2.980469 -8.546875 L 2.925781 -8.816406 L 2.816406 -9.085938 L 2.574219 -9.304688 L 2.316406 -9.425781 L 1.234375 -9.441406 L 0.988281 -9.492188 L 0.746094 -9.453125 L 0.460938 -9.441406 L 0.175781 -9.359375 L 0.121094 -9.046875 L 0.191406 -8.679688 L 0.757812 -7.136719 L 0.878906 -6.90625 L 1.4375 -5.390625 L 1.515625 -5.09375 L 1.894531 -4.078125 L 2.019531 -3.859375 L 3.113281 -0.785156 L 3.238281 -0.527344 Z M 3.316406 -0.296875 "/></g></g></g><g fill="#000000" fill-opacity="1"><g transform="translate(18.013714, 18.87097)"><g><path d="M 5.429688 0.175781 L 6.636719 0.0546875 L 7.152344 -0.109375 L 8.355469 -0.648438 L 9.304688 -1.558594 L 9.480469 -1.800781 L 10.007812 -2.734375 L 10.101562 -2.992188 L 10.144531 -3.265625 L 10.226562 -3.480469 L 10.28125 -3.777344 L 10.347656 -4.726562 L 10.28125 -5.660156 L 10.171875 -6.164062 L 10.0625 -6.445312 L 9.996094 -6.757812 L 9.75 -7.207031 L 9.65625 -7.449219 L 9.480469 -7.679688 L 9.316406 -7.839844 L 9.140625 -8.085938 L 8.558594 -8.613281 L 7.867188 -9.046875 L 6.09375 -9.601562 L 5.457031 -9.617188 L 4.511719 -9.5625 L 4.238281 -9.507812 L 3.96875 -9.425781 L 3.722656 -9.316406 L 3.210938 -9.183594 L 2.519531 -8.75 L 2.328125 -8.585938 L 1.894531 -8.289062 L 1.53125 -7.882812 L 1.070312 -7.207031 L 0.949219 -6.976562 L 0.691406 -6.230469 L 0.582031 -5.648438 L 0.527344 -4.078125 L 0.675781 -3.222656 L 0.878906 -2.761719 L 0.960938 -2.476562 L 1.097656 -2.234375 L 1.734375 -1.367188 L 2.113281 -1.003906 L 2.289062 -0.800781 L 3.210938 -0.3125 L 3.46875 -0.203125 L 4.617188 0.136719 Z M 5.050781 -2.207031 L 4.78125 -2.300781 L 4.535156 -2.328125 L 4.078125 -2.574219 L 3.65625 -2.9375 L 3.519531 -3.128906 L 3.34375 -3.316406 L 3.089844 -4.078125 L 3.019531 -4.753906 L 3.035156 -5.160156 L 3.128906 -5.660156 L 3.210938 -5.90625 L 3.371094 -6.09375 L 3.496094 -6.324219 L 3.671875 -6.542969 L 3.875 -6.71875 L 4.265625 -6.988281 L 4.511719 -7.109375 L 4.792969 -7.179688 L 5.417969 -7.230469 L 6.066406 -7.191406 L 6.785156 -6.878906 L 7.207031 -6.570312 L 7.515625 -6.109375 L 7.625 -5.863281 L 7.707031 -5.59375 L 7.800781 -5.351562 L 7.855469 -4.765625 L 7.773438 -4.089844 L 7.652344 -3.535156 L 7.503906 -3.332031 L 7.382812 -3.128906 L 7.21875 -2.886719 L 6.800781 -2.558594 L 6.554688 -2.453125 L 6.339844 -2.328125 L 6.09375 -2.300781 L 5.835938 -2.234375 Z M 5.050781 -2.207031 "/></g></g></g><g fill="#000000" fill-opacity="1"><g transform="translate(28.873456, 18.87097)"><g><path d="M 3.316406 -0.296875 L 3.535156 -0.0546875 L 3.832031 0.121094 L 4.347656 0.109375 L 4.644531 0 L 4.863281 -0.285156 L 4.984375 -0.515625 L 5.066406 -0.8125 L 5.199219 -1.054688 L 5.269531 -1.285156 L 5.390625 -1.570312 L 5.457031 -1.789062 L 5.878906 -2.789062 L 5.960938 -3.074219 L 6.203125 -3.589844 L 6.378906 -4.117188 L 6.515625 -4.078125 L 6.648438 -3.847656 L 6.730469 -3.5625 L 6.960938 -3.101562 L 7.734375 -1.015625 L 7.9375 -0.570312 L 8.019531 -0.3125 L 8.273438 -0.0273438 L 8.585938 0.136719 L 8.84375 0.121094 L 9.074219 0.0820312 L 9.398438 -0.0273438 L 9.601562 -0.269531 L 9.683594 -0.527344 L 9.804688 -0.773438 L 10.617188 -3.128906 L 10.738281 -3.359375 L 11.1875 -4.511719 L 11.296875 -4.890625 L 11.417969 -5.132812 L 11.472656 -5.363281 L 12.339844 -7.664062 L 12.40625 -7.964844 L 12.542969 -8.207031 L 12.796875 -9.035156 L 12.71875 -9.359375 L 12.445312 -9.425781 L 12.175781 -9.46875 L 11.703125 -9.441406 L 11.160156 -9.46875 L 10.875 -9.441406 L 10.617188 -9.480469 L 10.332031 -9.34375 L 10.101562 -9.0625 L 10.035156 -8.804688 L 9.914062 -8.574219 L 9.167969 -6.1875 L 9.113281 -5.917969 L 8.9375 -5.351562 L 8.84375 -4.78125 L 8.761719 -4.523438 L 8.628906 -4.535156 L 8.355469 -5.308594 L 8.289062 -5.578125 L 7.707031 -7.109375 L 7.570312 -7.625 L 7.460938 -7.882812 L 7.300781 -8.425781 L 7.191406 -8.65625 L 7.082031 -8.898438 L 6.894531 -9.167969 L 6.609375 -9.332031 L 6.3125 -9.332031 L 6.039062 -9.195312 L 5.808594 -8.925781 L 5.363281 -7.585938 L 5.160156 -7.097656 L 4.671875 -5.527344 L 4.535156 -5.324219 L 4.484375 -5.039062 L 4.28125 -4.523438 L 4.171875 -4.511719 L 4.117188 -4.835938 L 3.25 -7.789062 L 3.140625 -8.019531 L 2.980469 -8.546875 L 2.925781 -8.816406 L 2.816406 -9.085938 L 2.574219 -9.304688 L 2.316406 -9.425781 L 1.234375 -9.441406 L 0.988281 -9.492188 L 0.746094 -9.453125 L 0.460938 -9.441406 L 0.175781 -9.359375 L 0.121094 -9.046875 L 0.191406 -8.679688 L 0.757812 -7.136719 L 0.878906 -6.90625 L 1.4375 -5.390625 L 1.515625 -5.09375 L 1.894531 -4.078125 L 2.019531 -3.859375 L 3.113281 -0.785156 L 3.238281 -0.527344 Z M 3.316406 -0.296875 "/></g></g></g><g fill="#000000" fill-opacity="1"><g transform="translate(41.791406, 18.87097)"><g/></g></g><g fill="#000000" fill-opacity="1"><g transform="translate(45.460972, 18.87097)"><g><path d="M 3.644531 0.121094 L 4.714844 0.148438 L 4.984375 0.121094 L 5.253906 0.0546875 L 5.527344 0.0117188 L 5.796875 -0.09375 L 6.039062 -0.121094 L 6.296875 -0.242188 L 7.21875 -0.800781 L 7.613281 -1.207031 L 7.746094 -1.394531 L 7.894531 -1.691406 L 7.976562 -1.9375 L 8.058594 -2.167969 L 8.140625 -2.84375 L 8.113281 -3.277344 L 7.910156 -4.0625 L 7.761719 -4.28125 L 7.410156 -4.6875 L 7.164062 -4.902344 L 6.949219 -5.011719 L 6.703125 -5.160156 L 5.648438 -5.484375 L 5.375 -5.527344 L 5.105469 -5.539062 L 4.820312 -5.59375 L 4.429688 -5.59375 L 3.710938 -5.742188 L 3.210938 -5.984375 L 3.007812 -6.175781 L 2.953125 -6.582031 L 3.019531 -6.949219 L 3.183594 -7.125 L 3.386719 -7.273438 L 3.601562 -7.394531 L 3.847656 -7.449219 L 4.28125 -7.460938 L 4.714844 -7.410156 L 4.957031 -7.339844 L 5.199219 -7.179688 L 5.429688 -6.988281 L 5.632812 -6.71875 L 5.933594 -6.542969 L 6.570312 -6.597656 L 6.933594 -6.570312 L 7.207031 -6.570312 L 7.449219 -6.542969 L 7.707031 -6.730469 L 7.816406 -6.960938 L 7.761719 -7.21875 L 7.734375 -7.476562 L 7.355469 -8.179688 L 7.054688 -8.585938 L 6.164062 -9.210938 L 5.402344 -9.46875 L 4.875 -9.574219 L 3.832031 -9.601562 L 3.535156 -9.519531 L 3.265625 -9.507812 L 3.019531 -9.46875 L 2.503906 -9.304688 L 2.046875 -9.035156 L 1.394531 -8.585938 L 0.921875 -7.949219 L 0.675781 -7.207031 L 0.636719 -6.542969 L 0.648438 -6.121094 L 0.746094 -5.578125 L 0.960938 -5.105469 L 1.460938 -4.484375 L 2.382812 -3.980469 L 2.871094 -3.820312 L 4.996094 -3.574219 L 5.484375 -3.34375 L 5.660156 -3.183594 L 5.742188 -2.84375 L 5.632812 -2.503906 L 5.457031 -2.300781 L 4.996094 -2.097656 L 4.578125 -2.070312 L 4.332031 -2.03125 L 3.644531 -2.097656 L 3.414062 -2.222656 L 3.183594 -2.371094 L 2.734375 -2.859375 L 2.464844 -2.964844 L 2.222656 -2.9375 L 1.964844 -2.980469 L 0.921875 -2.925781 L 0.675781 -2.816406 L 0.570312 -2.53125 L 0.609375 -2.261719 L 0.664062 -1.992188 L 0.746094 -1.746094 L 1.003906 -1.246094 L 1.191406 -1.070312 L 1.367188 -0.867188 L 1.84375 -0.570312 L 2.03125 -0.367188 L 2.289062 -0.242188 L 2.558594 -0.164062 L 3.089844 0.0273438 Z M 3.644531 0.121094 "/></g></g></g><g fill="#000000" fill-opacity="1"><g transform="translate(54.100025, 18.87097)"><g><path d="M 5.429688 0.175781 L 6.636719 0.0546875 L 7.152344 -0.109375 L 8.355469 -0.648438 L 9.304688 -1.558594 L 9.480469 -1.800781 L 10.007812 -2.734375 L 10.101562 -2.992188 L 10.144531 -3.265625 L 10.226562 -3.480469 L 10.28125 -3.777344 L 10.347656 -4.726562 L 10.28125 -5.660156 L 10.171875 -6.164062 L 10.0625 -6.445312 L 9.996094 -6.757812 L 9.75 -7.207031 L 9.65625 -7.449219 L 9.480469 -7.679688 L 9.316406 -7.839844 L 9.140625 -8.085938 L 8.558594 -8.613281 L 7.867188 -9.046875 L 6.09375 -9.601562 L 5.457031 -9.617188 L 4.511719 -9.5625 L 4.238281 -9.507812 L 3.96875 -9.425781 L 3.722656 -9.316406 L 3.210938 -9.183594 L 2.519531 -8.75 L 2.328125 -8.585938 L 1.894531 -8.289062 L 1.53125 -7.882812 L 1.070312 -7.207031 L 0.949219 -6.976562 L 0.691406 -6.230469 L 0.582031 -5.648438 L 0.527344 -4.078125 L 0.675781 -3.222656 L 0.878906 -2.761719 L 0.960938 -2.476562 L 1.097656 -2.234375 L 1.734375 -1.367188 L 2.113281 -1.003906 L 2.289062 -0.800781 L 3.210938 -0.3125 L 3.46875 -0.203125 L 4.617188 0.136719 Z M 5.050781 -2.207031 L 4.78125 -2.300781 L 4.535156 -2.328125 L 4.078125 -2.574219 L 3.65625 -2.9375 L 3.519531 -3.128906 L 3.34375 -3.316406 L 3.089844 -4.078125 L 3.019531 -4.753906 L 3.035156 -5.160156 L 3.128906 -5.660156 L 3.210938 -5.90625 L 3.371094 -6.09375 L 3.496094 -6.324219 L 3.671875 -6.542969 L 3.875 -6.71875 L 4.265625 -6.988281 L 4.511719 -7.109375 L 4.792969 -7.179688 L 5.417969 -7.230469 L 6.066406 -7.191406 L 6.785156 -6.878906 L 7.207031 -6.570312 L 7.515625 -6.109375 L 7.625 -5.863281 L 7.707031 -5.59375 L 7.800781 -5.351562 L 7.855469 -4.765625 L 7.773438 -4.089844 L 7.652344 -3.535156 L 7.503906 -3.332031 L 7.382812 -3.128906 L 7.21875 -2.886719 L 6.800781 -2.558594 L 6.554688 -2.453125 L 6.339844 -2.328125 L 6.09375 -2.300781 L 5.835938 -2.234375 Z M 5.050781 -2.207031 "/></g></g></g><g fill="#000000" fill-opacity="1"><g transform="translate(64.959767, 18.87097)"><g><path d="M 1.03125 -0.488281 L 1.125 -0.136719 L 1.382812 0 L 1.652344 0.0273438 L 2.222656 -0.0117188 L 2.75 0.0117188 L 3.265625 -0.0117188 L 3.519531 0.0273438 L 3.820312 0 L 6.5 0.0117188 L 6.757812 -0.121094 L 6.90625 -0.542969 L 6.894531 -1.640625 L 6.773438 -2.046875 L 6.527344 -2.207031 L 6.242188 -2.179688 L 5.984375 -2.125 L 5.703125 -2.167969 L 5.148438 -2.152344 L 4.875 -2.207031 L 4.632812 -2.167969 L 4.105469 -2.195312 L 3.820312 -2.167969 L 3.546875 -2.273438 L 3.441406 -2.546875 L 3.453125 -7.136719 L 3.425781 -7.460938 L 3.453125 -8.003906 L 3.414062 -8.777344 L 3.425781 -9.035156 L 3.292969 -9.332031 L 3.019531 -9.492188 L 2.492188 -9.492188 L 2.222656 -9.441406 L 1.679688 -9.492188 L 1.421875 -9.453125 L 1.136719 -9.34375 L 1.015625 -9.046875 L 1.015625 -7.152344 L 0.988281 -6.894531 L 1.015625 -6.621094 L 0.976562 -6.121094 L 0.988281 -5.824219 L 1.015625 -5.566406 Z M 1.03125 -0.488281 "/></g></g></g><g fill="#000000" fill-opacity="1"><g transform="translate(72.244732, 18.87097)"><g><path d="M 4.660156 0.175781 L 5.066406 0.136719 L 5.324219 0.148438 L 6.378906 -0.121094 L 6.867188 -0.378906 L 7.3125 -0.675781 L 7.691406 -1.054688 L 8.003906 -1.53125 L 8.085938 -1.800781 L 8.222656 -2.03125 L 8.34375 -2.601562 L 8.410156 -3.25 L 8.410156 -6.90625 L 8.382812 -7.164062 L 8.410156 -7.460938 L 8.382812 -7.679688 L 8.382812 -8.804688 L 8.425781 -9.074219 L 8.246094 -9.359375 L 7.949219 -9.453125 L 7.097656 -9.425781 L 6.527344 -9.46875 L 6.242188 -9.332031 L 6.09375 -9.035156 L 6.121094 -3.699219 L 6.027344 -2.859375 L 5.945312 -2.65625 L 5.796875 -2.382812 L 5.566406 -2.222656 L 5.09375 -2.046875 L 4.28125 -2.046875 L 3.96875 -2.113281 L 3.738281 -2.25 L 3.519531 -2.410156 L 3.359375 -2.628906 L 3.277344 -2.886719 L 3.195312 -3.671875 L 3.238281 -8.03125 L 3.210938 -8.234375 L 3.238281 -8.667969 L 3.210938 -9.0625 L 3.046875 -9.359375 L 2.761719 -9.480469 L 2.503906 -9.480469 L 2.234375 -9.441406 L 1.652344 -9.492188 L 1.367188 -9.453125 L 1.082031 -9.34375 L 0.90625 -9.085938 L 0.933594 -8.816406 L 0.933594 -8.492188 L 0.90625 -8.273438 L 0.949219 -6.378906 L 0.90625 -6.109375 L 0.933594 -5.851562 L 0.894531 -3.671875 L 0.976562 -2.585938 L 1.109375 -2.03125 L 1.328125 -1.570312 L 1.640625 -1.082031 L 1.800781 -0.894531 L 2.003906 -0.71875 L 2.4375 -0.433594 L 2.707031 -0.3125 L 2.910156 -0.191406 L 3.425781 0.0390625 L 3.953125 0.148438 L 4.226562 0.148438 Z M 4.660156 0.175781 "/></g></g></g><g fill="#000000" fill-opacity="1"><g transform="translate(81.587906, 18.87097)"><g><path d="M 3.535156 0.0273438 L 4.441406 0 L 4.835938 -0.136719 L 4.96875 -0.515625 L 5.011719 -1.21875 L 4.96875 -1.734375 L 4.996094 -2.019531 L 4.984375 -2.558594 L 5.011719 -2.804688 L 4.96875 -3.101562 L 4.996094 -5.28125 L 4.957031 -5.566406 L 4.996094 -6.746094 L 5.105469 -7.152344 L 5.363281 -7.3125 L 5.890625 -7.339844 L 6.390625 -7.273438 L 6.675781 -7.3125 L 6.921875 -7.300781 L 7.152344 -7.449219 L 7.3125 -7.746094 L 7.328125 -9.035156 L 7.179688 -9.304688 L 6.921875 -9.480469 L 6.082031 -9.480469 L 5.824219 -9.507812 L 5.539062 -9.46875 L 5.28125 -9.492188 L 4.183594 -9.441406 L 3.914062 -9.492188 L 3.65625 -9.507812 L 3.371094 -9.46875 L 3.074219 -9.492188 L 2.832031 -9.441406 L 2.03125 -9.480469 L 1.613281 -9.441406 L 0.664062 -9.492188 L 0.40625 -9.359375 L 0.242188 -9.046875 L 0.257812 -8.777344 L 0.230469 -8.097656 L 0.257812 -7.679688 L 0.378906 -7.433594 L 0.621094 -7.300781 L 0.894531 -7.328125 L 2.179688 -7.300781 L 2.4375 -7.164062 L 2.585938 -6.894531 L 2.558594 -6.460938 L 2.585938 -6.082031 L 2.574219 -5.78125 L 2.585938 -5.511719 L 2.558594 -5.132812 L 2.601562 -3.113281 L 2.574219 -2.84375 L 2.558594 -1.746094 L 2.585938 -1.460938 L 2.574219 -0.675781 L 2.546875 -0.417969 L 2.722656 -0.121094 L 3.113281 0.0117188 Z M 3.535156 0.0273438 "/></g></g></g><g fill="#000000" fill-opacity="1"><g transform="translate(89.157232, 18.87097)"><g><path d="M 4.535156 0.0546875 L 5.078125 0.0273438 L 5.324219 -0.109375 L 5.457031 -0.367188 L 5.457031 -1.707031 L 5.296875 -1.964844 L 4.996094 -2.113281 L 4.714844 -2.113281 L 4.386719 -2.222656 L 4.226562 -2.53125 L 4.265625 -2.789062 L 4.253906 -4.28125 L 4.28125 -4.578125 L 4.226562 -5.554688 L 4.28125 -6.921875 L 4.375 -7.230469 L 4.671875 -7.355469 L 4.945312 -7.394531 L 5.226562 -7.503906 L 5.363281 -7.71875 L 5.375 -9.0625 L 5.214844 -9.316406 L 4.96875 -9.46875 L 3.332031 -9.46875 L 3.089844 -9.492188 L 2.816406 -9.441406 L 1.707031 -9.441406 L 1.449219 -9.480469 L 1.136719 -9.480469 L 0.867188 -9.34375 L 0.730469 -9.019531 L 0.773438 -8.019531 L 0.746094 -7.761719 L 0.894531 -7.488281 L 1.191406 -7.339844 L 1.460938 -7.339844 L 1.71875 -7.179688 L 1.84375 -6.8125 L 1.882812 -2.65625 L 1.734375 -2.25 L 0.839844 -1.976562 L 0.691406 -1.734375 L 0.648438 -0.488281 L 0.785156 -0.121094 L 1.054688 0 L 1.3125 0 L 1.570312 -0.0273438 L 1.964844 0.0273438 L 2.382812 0.0117188 L 2.65625 -0.0117188 L 3.195312 0.0390625 L 3.601562 -0.0117188 L 4.265625 -0.0117188 Z M 4.535156 0.0546875 "/></g></g></g><g fill="#000000" fill-opacity="1"><g transform="translate(95.304769, 18.87097)"><g><path d="M 5.429688 0.175781 L 6.636719 0.0546875 L 7.152344 -0.109375 L 8.355469 -0.648438 L 9.304688 -1.558594 L 9.480469 -1.800781 L 10.007812 -2.734375 L 10.101562 -2.992188 L 10.144531 -3.265625 L 10.226562 -3.480469 L 10.28125 -3.777344 L 10.347656 -4.726562 L 10.28125 -5.660156 L 10.171875 -6.164062 L 10.0625 -6.445312 L 9.996094 -6.757812 L 9.75 -7.207031 L 9.65625 -7.449219 L 9.480469 -7.679688 L 9.316406 -7.839844 L 9.140625 -8.085938 L 8.558594 -8.613281 L 7.867188 -9.046875 L 6.09375 -9.601562 L 5.457031 -9.617188 L 4.511719 -9.5625 L 4.238281 -9.507812 L 3.96875 -9.425781 L 3.722656 -9.316406 L 3.210938 -9.183594 L 2.519531 -8.75 L 2.328125 -8.585938 L 1.894531 -8.289062 L 1.53125 -7.882812 L 1.070312 -7.207031 L 0.949219 -6.976562 L 0.691406 -6.230469 L 0.582031 -5.648438 L 0.527344 -4.078125 L 0.675781 -3.222656 L 0.878906 -2.761719 L 0.960938 -2.476562 L 1.097656 -2.234375 L 1.734375 -1.367188 L 2.113281 -1.003906 L 2.289062 -0.800781 L 3.210938 -0.3125 L 3.46875 -0.203125 L 4.617188 0.136719 Z M 5.050781 -2.207031 L 4.78125 -2.300781 L 4.535156 -2.328125 L 4.078125 -2.574219 L 3.65625 -2.9375 L 3.519531 -3.128906 L 3.34375 -3.316406 L 3.089844 -4.078125 L 3.019531 -4.753906 L 3.035156 -5.160156 L 3.128906 -5.660156 L 3.210938 -5.90625 L 3.371094 -6.09375 L 3.496094 -6.324219 L 3.671875 -6.542969 L 3.875 -6.71875 L 4.265625 -6.988281 L 4.511719 -7.109375 L 4.792969 -7.179688 L 5.417969 -7.230469 L 6.066406 -7.191406 L 6.785156 -6.878906 L 7.207031 -6.570312 L 7.515625 -6.109375 L 7.625 -5.863281 L 7.707031 -5.59375 L 7.800781 -5.351562 L 7.855469 -4.765625 L 7.773438 -4.089844 L 7.652344 -3.535156 L 7.503906 -3.332031 L 7.382812 -3.128906 L 7.21875 -2.886719 L 6.800781 -2.558594 L 6.554688 -2.453125 L 6.339844 -2.328125 L 6.09375 -2.300781 L 5.835938 -2.234375 Z M 5.050781 -2.207031 "/></g></g></g><g fill="#000000" fill-opacity="1"><g transform="translate(106.16451, 18.87097)"><g><path d="M 7.992188 -0.230469 L 8.355469 -0.0117188 L 8.734375 0.0273438 L 9.035156 -0.0664062 L 9.167969 -0.339844 L 9.195312 -5.28125 L 9.15625 -5.511719 L 9.15625 -6.851562 L 9.195312 -7.179688 L 9.15625 -9.0625 L 9.019531 -9.332031 L 8.75 -9.480469 L 7.070312 -9.46875 L 6.8125 -9.316406 L 6.664062 -9.035156 L 6.648438 -8.75 L 6.691406 -8.53125 L 6.648438 -7.964844 L 6.675781 -7.664062 L 6.648438 -5.242188 L 6.570312 -5.011719 L 6.367188 -5.105469 L 5.402344 -6.066406 L 5.023438 -6.367188 L 2.355469 -9.0625 L 2.152344 -9.222656 L 1.84375 -9.386719 L 1.4375 -9.480469 L 1.125 -9.34375 L 1.003906 -9.085938 L 1.003906 -4.984375 L 0.988281 -4.753906 L 1.015625 -4.199219 L 0.976562 -3.96875 L 1.003906 -1.746094 L 0.976562 -1.488281 L 1.003906 -0.351562 L 1.125 -0.09375 L 1.410156 0 L 1.964844 0.0273438 L 2.261719 0 L 2.789062 0.0390625 L 3.074219 0.0273438 L 3.34375 -0.109375 L 3.480469 -0.527344 L 3.496094 -3.953125 L 3.519531 -4.226562 L 3.617188 -4.457031 L 3.792969 -4.386719 L 3.96875 -4.15625 L 4.929688 -3.238281 L 5.105469 -3.035156 L 5.335938 -2.886719 L 7.433594 -0.800781 L 7.789062 -0.40625 Z M 7.992188 -0.230469 "/></g></g></g><g fill="#000000" fill-opacity="1"><g transform="translate(116.374298, 18.87097)"><g/></g></g><g fill="#000000" fill-opacity="1"><g transform="translate(120.043864, 18.87097)"><g><path d="M 3.414062 0.175781 L 3.792969 0.191406 L 4.484375 0.148438 L 5.308594 -0.109375 L 5.972656 -0.542969 L 6.664062 -1.394531 L 6.773438 -1.652344 L 6.894531 -1.882812 L 7.003906 -2.140625 L 7.070312 -2.410156 L 7.109375 -2.679688 L 7.109375 -3.507812 L 6.988281 -4.28125 L 6.636719 -5.023438 L 6.230469 -5.402344 L 5.808594 -5.6875 L 5.539062 -5.808594 L 5.402344 -6 L 5.390625 -6.285156 L 5.527344 -6.554688 L 5.675781 -6.785156 L 5.90625 -7.285156 L 6.175781 -7.746094 L 6.3125 -8.03125 L 6.757812 -8.734375 L 6.878906 -9.074219 L 6.8125 -9.371094 L 6.488281 -9.46875 L 5.824219 -9.492188 L 5.429688 -9.46875 L 5.132812 -9.492188 L 4.847656 -9.46875 L 2.167969 -9.46875 L 1.746094 -9.507812 L 1.460938 -9.480469 L 1.03125 -9.34375 L 0.921875 -9.074219 L 0.878906 -8.246094 L 0.921875 -7.71875 L 1.042969 -7.449219 L 1.3125 -7.3125 L 3.25 -7.3125 L 3.441406 -7.21875 L 3.480469 -6.949219 L 3.398438 -6.703125 L 3.113281 -6.257812 L 2.585938 -5.039062 L 2.425781 -4.742188 L 2.519531 -4.457031 L 2.777344 -4.375 L 3.820312 -4.308594 L 4.0625 -4.226562 L 4.484375 -3.96875 L 4.644531 -3.75 L 4.714844 -3.480469 L 4.753906 -3.089844 L 4.714844 -2.679688 L 4.589844 -2.425781 L 4.375 -2.167969 L 4.144531 -2.03125 L 3.304688 -2.003906 L 2.898438 -2.289062 L 2.558594 -2.777344 L 2.25 -2.886719 L 0.90625 -2.910156 L 0.691406 -2.777344 L 0.570312 -2.476562 L 0.636719 -2.234375 L 0.675781 -1.949219 L 0.851562 -1.449219 L 1.179688 -0.976562 L 1.382812 -0.800781 L 1.542969 -0.597656 L 1.734375 -0.417969 L 2.070312 -0.203125 L 2.707031 0.0546875 L 2.898438 0.0820312 L 3.140625 0.164062 Z M 3.414062 0.175781 "/></g></g></g><g fill="#000000" fill-opacity="1"><g transform="translate(127.843382, 18.87097)"><g><path d="M 3.386719 0.09375 L 4.226562 0.148438 L 4.929688 0.109375 L 5.171875 0.0664062 L 5.402344 -0.0117188 L 5.960938 -0.148438 L 6.1875 -0.296875 L 6.433594 -0.394531 L 6.675781 -0.570312 L 7.097656 -0.949219 L 7.515625 -1.640625 L 7.773438 -2.425781 L 7.773438 -2.679688 L 7.839844 -3.101562 L 7.789062 -3.507812 L 7.789062 -3.777344 L 7.71875 -4.050781 L 7.558594 -4.523438 L 7.433594 -4.808594 L 7.21875 -5.011719 L 7.070312 -5.226562 L 6.90625 -5.417969 L 6.472656 -5.730469 L 5.972656 -5.972656 L 5.148438 -6.164062 L 4.890625 -6.164062 L 4.726562 -6.242188 L 4.714844 -6.488281 L 5.121094 -7.179688 L 5.324219 -7.625 L 6.285156 -9.195312 L 6.296875 -9.441406 L 6.109375 -9.546875 L 5.269531 -9.546875 L 5.039062 -9.574219 L 4.226562 -9.5625 L 3.875 -9.453125 L 3.644531 -9.222656 L 3.46875 -8.964844 L 3.359375 -8.734375 L 3.183594 -8.519531 L 3.0625 -8.261719 L 2.871094 -8.042969 L 2.75 -7.773438 L 2.601562 -7.542969 L 2.492188 -7.300781 L 1.773438 -6.136719 L 1.679688 -5.890625 L 1.503906 -5.6875 L 0.960938 -4.742188 L 0.867188 -4.496094 L 0.800781 -4.238281 L 0.703125 -3.996094 L 0.664062 -3.75 L 0.582031 -3.519531 L 0.582031 -2.667969 L 0.851562 -1.640625 L 1.152344 -1.152344 L 1.542969 -0.71875 L 1.71875 -0.570312 L 2.300781 -0.214844 L 2.992188 0.0117188 Z M 4.660156 -1.949219 L 4.199219 -1.9375 L 3.777344 -1.964844 L 3.507812 -2.058594 L 3.316406 -2.222656 L 3.140625 -2.425781 L 3.0625 -2.679688 L 3.019531 -3.089844 L 3.035156 -3.519531 L 3.316406 -3.996094 L 3.832031 -4.253906 L 4.199219 -4.265625 L 4.589844 -4.226562 L 4.835938 -4.171875 L 5.078125 -3.996094 L 5.253906 -3.75 L 5.375 -3.074219 L 5.335938 -2.695312 L 5.214844 -2.410156 L 5.078125 -2.207031 L 4.875 -2.058594 Z M 4.660156 -1.949219 "/></g></g></g><g fill="#000000" fill-opacity="1"><g transform="translate(136.198075, 18.87097)"><g><path d="M 3.925781 0.148438 L 4.375 0.175781 L 4.890625 0.136719 L 5.527344 0 L 6.027344 -0.191406 L 6.773438 -0.597656 L 6.960938 -0.800781 L 7.421875 -1.421875 L 7.707031 -1.921875 L 7.828125 -2.425781 L 7.867188 -6.746094 L 7.761719 -7.300781 L 7.636719 -7.558594 L 7.542969 -7.828125 L 7.300781 -8.246094 L 7.097656 -8.464844 L 6.976562 -8.667969 L 6.757812 -8.859375 L 6.039062 -9.265625 L 5.808594 -9.371094 L 5.527344 -9.46875 L 5.011719 -9.574219 L 3.941406 -9.617188 L 2.859375 -9.386719 L 2.613281 -9.289062 L 2.398438 -9.140625 L 2.140625 -9.007812 L 1.734375 -8.65625 L 1.558594 -8.453125 L 1.355469 -8.261719 L 1.234375 -8.042969 L 1.125 -7.800781 L 0.800781 -6.757812 L 0.785156 -5.960938 L 0.839844 -5.660156 L 0.773438 -4.863281 L 0.824219 -4.589844 L 0.785156 -4.320312 L 0.824219 -4.050781 L 0.839844 -2.410156 L 0.976562 -1.894531 L 1.109375 -1.652344 L 1.207031 -1.421875 L 1.542969 -1.003906 L 1.71875 -0.800781 L 1.9375 -0.609375 L 2.179688 -0.472656 L 2.371094 -0.324219 L 2.640625 -0.175781 L 3.371094 0.0546875 Z M 4.765625 -2.058594 L 4.332031 -2.003906 L 3.925781 -2.046875 L 3.644531 -2.140625 L 3.453125 -2.261719 L 3.292969 -2.476562 L 3.195312 -2.75 L 3.089844 -3.167969 L 3.089844 -6.324219 L 3.15625 -6.71875 L 3.292969 -6.976562 L 3.46875 -7.164062 L 3.914062 -7.410156 L 4.742188 -7.421875 L 4.996094 -7.328125 L 5.226562 -7.164062 L 5.375 -6.949219 L 5.472656 -6.703125 L 5.539062 -6.3125 L 5.59375 -5.660156 L 5.539062 -4.589844 L 5.59375 -4.347656 L 5.554688 -4.078125 L 5.539062 -3.804688 L 5.578125 -3.574219 L 5.566406 -3.167969 L 5.5 -2.75 L 5.417969 -2.503906 L 5.214844 -2.289062 L 5.011719 -2.152344 Z M 4.765625 -2.058594 "/></g></g></g></svg>